<svg width="205" height="60" viewBox="0 0 205 60" fill="none" xmlns="http://www.w3.org/2000/svg">
<g clip-path="url(#clip0_7927_63415)">
<path d="M75.1889 49.8971C74.7715 50.5584 74.3296 51.2049 73.8582 51.8367C71.1706 55.5129 67.8741 58.0204 63.9688 59.3413H204.999V49.8971H75.1889Z" fill="#F29100"/>
<path d="M199.919 46.3699H201.309H201.381V44.5384L202.749 46.3699H204.486H204.558L202.622 44.0588L204.509 41.8884H202.877H202.805L201.381 43.6807V41.8884H199.991H199.919V46.3699Z" fill="#5BA432"/>
<path d="M192.361 46.3699H193.752H193.824V41.8884H192.433H192.361V46.3699Z" fill="#5BA432"/>
<path d="M183.855 46.3699H185.243H185.313V42.9638H186.406V41.8884H182.832H182.761V42.9638H183.855V46.3699Z" fill="#5BA432"/>
<path d="M176.695 42.201C176.688 42.1879 176.682 42.1879 176.674 42.1879L176.659 42.1748C176.348 41.9833 176.063 41.8687 175.795 41.8294C175.512 41.7787 175.312 41.759 175.184 41.759H175.112C174.546 41.7656 174.114 41.8949 173.814 42.1502C173.516 42.4121 173.366 42.7329 173.366 43.111C173.366 43.4891 173.459 43.751 173.644 43.9359C173.834 44.1225 174.034 44.2568 174.246 44.3468C174.338 44.3861 174.423 44.4106 174.508 44.4368C174.606 44.4695 174.685 44.4875 174.755 44.5006C174.77 44.5121 174.785 44.5121 174.8 44.5121C174.821 44.5186 174.827 44.5186 174.834 44.5186C175.027 44.5694 175.183 44.6267 175.312 44.6921C175.44 44.7625 175.503 44.8771 175.503 45.044C175.497 45.0702 175.497 45.0964 175.497 45.121C175.49 45.1603 175.482 45.1848 175.467 45.211C175.44 45.2683 175.397 45.3125 175.341 45.3518C175.269 45.4025 175.178 45.4221 175.05 45.4221H174.993C174.965 45.409 174.95 45.4091 174.935 45.4091C174.757 45.3829 174.595 45.3256 174.433 45.2356C174.263 45.1455 174.12 45.049 173.993 44.9475C173.965 44.9213 173.942 44.9016 173.921 44.8902C173.893 44.864 173.872 44.846 173.85 44.8264H173.778L173.119 45.7806C173.338 45.941 173.529 46.0687 173.706 46.1652C173.899 46.2684 174.076 46.3371 174.246 46.3911C174.372 46.4288 174.487 46.455 174.602 46.4664C174.729 46.4926 174.849 46.4991 174.978 46.4991L175.048 46.4926C175.544 46.4926 175.978 46.378 176.346 46.1456C176.729 45.9099 176.913 45.5367 176.913 45.0244C176.906 44.6349 176.813 44.3451 176.631 44.1536C176.438 43.949 176.233 43.8017 176.006 43.7117C175.886 43.661 175.773 43.6217 175.659 43.5971C175.544 43.5579 175.454 43.5398 175.368 43.5268C175.333 43.5137 175.296 43.5071 175.255 43.5006C175.212 43.4875 175.168 43.4826 175.125 43.4695C175.034 43.4433 174.955 43.4056 174.885 43.3533C174.813 43.2894 174.777 43.219 174.777 43.129C174.785 43.1028 174.785 43.0783 174.785 43.0521C174.8 43.0128 174.806 42.9883 174.821 42.9621C174.857 42.8966 174.898 42.8524 174.962 42.8148C175.034 42.764 175.124 42.7444 175.253 42.7444C175.394 42.7575 175.515 42.782 175.626 42.8344C175.755 42.8917 175.868 42.9572 175.981 43.0324C176.011 43.0521 176.032 43.0717 176.053 43.0914C176.081 43.1159 176.102 43.129 176.125 43.1421H176.196L176.692 42.201H176.695Z" fill="#5BA432"/>
<path d="M165.095 46.3699H166.485H166.555V41.8884H165.166H165.095V46.3699Z" fill="#5BA432"/>
<path d="M156.391 43.9049V42.8738H156.661C156.895 42.8803 157.057 42.9245 157.149 43.0145C157.249 43.1111 157.299 43.2126 157.311 43.3222V43.4368C157.298 43.5579 157.247 43.6611 157.154 43.756C157.057 43.8591 156.894 43.9033 156.659 43.9033H156.389L156.391 43.9049ZM154.929 46.3699H156.391V44.9918L157.37 46.3699H159.121L157.732 44.5777C157.745 44.5711 157.753 44.5711 157.759 44.5711C157.772 44.558 157.781 44.558 157.787 44.558C158.043 44.4696 158.263 44.3272 158.463 44.1292C158.676 43.918 158.776 43.6234 158.776 43.2339C158.776 42.8672 158.683 42.5988 158.498 42.4187C158.313 42.2272 158.113 42.0996 157.9 42.0226C157.71 41.9523 157.538 41.9146 157.376 41.9081C157.206 41.895 157.1 41.8884 157.057 41.8884H154.928V46.3716L154.929 46.3699Z" fill="#5BA432"/>
<path d="M143.647 41.8884H143.575V44.558C143.583 45.2373 143.78 45.7234 144.186 46.0311C144.598 46.3454 145.122 46.5009 145.76 46.5009L145.831 46.4943C146.484 46.4943 147.009 46.3388 147.405 46.0328C147.816 45.7136 148.014 45.2258 148.014 44.5597V41.8901H146.554V44.5335C146.546 44.5858 146.546 44.6431 146.539 44.7135C146.531 44.7839 146.518 44.8543 146.497 44.9312C146.453 45.0523 146.382 45.162 146.284 45.2635C146.178 45.3731 146.016 45.4239 145.793 45.4239C145.567 45.419 145.412 45.3666 145.312 45.2635C145.207 45.1554 145.133 45.0458 145.092 44.9312C145.065 44.8477 145.05 44.7773 145.043 44.7135C145.035 44.6366 145.035 44.5793 145.035 44.5335V41.8901H143.646L143.647 41.8884Z" fill="#5BA432"/>
<path d="M134.985 45.4221C134.93 45.4172 134.879 45.4172 134.823 45.4091C134.767 45.396 134.717 45.3829 134.669 45.3714C134.448 45.3076 134.252 45.1848 134.065 44.9933C133.882 44.7953 133.797 44.5072 133.797 44.1291C133.803 43.7461 133.889 43.4629 134.065 43.2714C134.258 43.0717 134.456 42.9457 134.669 42.8868C134.723 42.8671 134.776 42.854 134.831 42.8491C134.895 42.836 134.946 42.836 134.993 42.836C135.051 42.8426 135.093 42.8426 135.136 42.8491C135.193 42.8622 135.24 42.8671 135.291 42.8802C135.517 42.9441 135.725 43.0668 135.91 43.2583C136.1 43.4564 136.193 43.7444 136.193 44.1291C136.185 44.5268 136.095 44.8149 135.91 45.0064C135.723 45.2061 135.517 45.3272 135.291 45.378C135.234 45.396 135.186 45.409 135.136 45.4172C135.078 45.4221 135.029 45.4221 134.985 45.4221ZM134.957 46.4991L135.029 46.4926C135.923 46.4877 136.581 46.2487 137.021 45.7806C137.475 45.3076 137.697 44.7576 137.697 44.1291C137.689 43.5022 137.47 42.9522 137.021 42.4776C136.57 41.9964 135.91 41.759 135.029 41.759H134.957C134.072 41.7656 133.404 42.0029 132.957 42.4776C132.51 42.9506 132.291 43.5006 132.291 44.1291C132.291 44.7576 132.517 45.3141 132.97 45.7888C133.433 46.2618 134.09 46.5008 134.956 46.5008L134.957 46.4991Z" fill="#5BA432"/>
<path d="M124.206 46.3699H125.595H125.666V42.9638H126.759V41.8884H123.183H123.114V42.9638H124.206V46.3699Z" fill="#5BA432"/>
<path d="M129.227 38.6459H123.119V15.2515H129.027C131.974 15.2515 137.843 16.4643 137.843 23.2209C137.843 29.9776 132.42 30.9678 129.225 30.9678V38.6459H129.227ZM129.227 25.7236C129.36 25.735 129.453 25.7416 129.509 25.7416C130.093 25.7416 130.607 25.5763 131.049 25.244C131.645 24.8103 131.943 24.1015 131.943 23.1178C131.943 22.2732 131.71 21.5874 131.247 21.0604C130.838 20.5923 130.309 20.3582 129.658 20.3582C129.546 20.3582 129.404 20.3648 129.227 20.3746V25.7219V25.7236Z" fill="#0062A2"/>
<path d="M139.951 38.6459V15.2515H152.834V20.7527H146.058V24.1637H152.304V29.4587H146.058V33.0236H152.834V38.6459H139.951Z" fill="#0062A2"/>
<path d="M163.285 25.1228H171.809V26.082C171.809 28.6534 171.633 30.7092 171.281 32.2526C170.695 34.7896 169.598 36.6179 167.986 37.7375C166.717 38.6279 165.249 39.0747 163.583 39.0747C161.784 39.0747 160.185 38.5608 158.782 37.5329C156.167 35.6015 154.859 32.1102 154.859 27.0608C154.859 23.599 155.538 20.7592 156.895 18.543C158.407 16.0633 160.63 14.8242 163.565 14.8242C167.13 14.8242 169.711 16.7556 171.312 20.6168L165.403 22.8624C165.315 22.1308 165.105 21.5432 164.774 21.0964C164.465 20.6741 164.079 20.4629 163.616 20.4629C162.855 20.4629 162.259 20.9376 161.828 21.8853C161.342 22.9705 161.1 24.8839 161.1 27.6271C161.1 29.9235 161.326 31.4948 161.779 32.341C162.165 33.0727 162.712 33.4377 163.418 33.4377C164.123 33.4377 164.642 33.0841 165.04 32.3754C165.359 31.8042 165.524 31.0267 165.536 30.0446H163.285V25.1261V25.1228Z" fill="#0062A2"/>
<path d="M189.975 38.6459H183.668L183.221 35.6801H179.1L178.604 38.6459H172.297L177.727 15.2515H185.192L189.976 38.6459H189.975ZM182.509 30.6765L182.111 27.9512C181.902 26.5469 181.648 24.1752 181.35 20.8394C181.251 21.6627 181.174 22.2798 181.12 22.6906C181.02 23.5827 180.894 24.5582 180.738 25.6221L180.557 26.9937L179.928 30.6797H182.511L182.509 30.6765Z" fill="#0062A2"/>
<path d="M204.286 23.2061V16.042C202.614 15.2432 200.872 14.8209 199.235 14.8209C196.376 14.8209 194.209 15.9749 192.734 18.2827C191.885 19.62 191.459 21.0243 191.459 22.4991C191.459 24.1784 192.022 25.6695 193.145 26.9724C193.732 27.6467 194.562 28.3669 195.636 29.1313C196.51 29.7598 197.009 30.1248 197.134 30.2279C197.697 30.7075 197.977 31.2165 197.977 31.7534C197.977 32.1871 197.802 32.5423 197.451 32.8157C197.05 33.125 196.553 33.2789 195.952 33.2789C194.484 33.2789 193.109 32.5276 191.824 31.0447V38.1532C193.502 38.7588 195.153 39.0731 196.775 39.0731C199.098 39.0731 201.034 38.33 202.583 36.8454C204.131 35.3609 204.905 33.4524 204.905 31.1216C204.905 29.2819 204.331 27.7613 203.182 26.5615C202.52 25.8528 201.733 25.203 200.821 24.6072C199.923 24.0131 199.404 23.653 199.266 23.5269C198.63 22.9901 198.311 22.4827 198.311 22.0015C198.311 21.7265 198.417 21.4695 198.63 21.2305C198.991 20.8083 199.497 20.5971 200.147 20.5971C200.983 20.5971 201.851 20.9457 202.751 21.643C203.288 22.0538 203.856 22.5891 204.28 23.2061H204.286Z" fill="#0062A2"/>
<path d="M107.43 11.0596C107.903 11.5523 108.844 11.3051 108.684 12.2872C109.785 13.4329 112.69 12.5327 112.139 14.9879L111.669 15.1516C111.669 15.3954 111.902 15.641 111.825 15.7244C111.118 17.0339 110.409 15.3971 109.546 15.7244C108.921 16.2155 107.978 15.4805 107.819 16.2989C107.582 18.0994 109.391 18.5102 109.626 20.1454C110.33 20.8819 110.96 20.8819 111.196 21.9458C111.116 22.6824 111.037 23.175 111.037 23.9934H111.353C111.825 23.3387 112.294 22.8477 112.844 22.2732C113.393 22.2732 114.02 22.2732 114.648 22.4369C115.903 23.4189 117.396 22.4369 118.575 23.5008C118.807 23.6628 119.125 23.8281 119.359 23.9918C118.73 24.7283 118.023 25.1359 117.161 25.1359C117.161 24.8904 117.242 24.4828 117.003 24.3192C116.061 24.0736 114.885 23.0081 113.944 23.9918C113.866 25.2194 115.121 25.8741 114.964 27.1033V27.3488C114.885 28.2491 115.041 29.0658 114.808 29.9677C114.178 29.7222 113.787 28.9038 113.473 28.2491C113.55 27.9201 113.944 27.5943 113.709 27.1852C113.394 26.8562 113.709 26.2031 113.473 25.7923C113.237 25.3831 113.003 25.1359 112.846 24.892C111.903 25.6302 110.962 27.1852 109.785 27.1033L109.549 26.8562C108.924 27.8399 108.373 29.0658 107.43 29.9677C106.176 31.6045 104.056 31.9334 103.114 33.5686C103.114 35.698 102.565 38.1532 100.839 39.5445C100.449 40.0371 99.8205 40.2827 100.212 40.7737C100.839 41.8392 101.78 41.9996 102.567 42.8197C102.721 43.7215 103.821 44.2109 103.428 45.522C103.428 45.6873 103.505 45.7675 103.349 46.0147C102.878 46.2602 102.485 45.6038 102.174 45.2765C102.015 44.8673 102.174 43.8852 101.547 43.967C101.547 43.2289 100.919 42.8197 100.449 42.5758C100.212 42.7395 100.369 43.2289 100.449 43.476C100.997 44.5399 102.017 45.1144 102.331 46.4222C101.781 46.4222 101.074 46.6677 100.449 46.4222C100.212 46.0949 100.449 45.1144 99.7403 45.1144C99.5062 43.476 98.7206 42.0013 97.7794 40.8572C97.6223 39.4643 98.7991 38.3185 99.3474 37.0075C99.5062 35.698 98.0135 35.207 97.6223 33.9794C97.074 33.4049 96.7597 32.6684 96.5224 31.8483C95.974 31.9318 95.5812 32.5047 95.3472 32.9957C95.5812 33.8959 95.5812 35.0433 96.2114 35.8617C97.074 37.2546 97.074 39.0534 96.9168 40.6919C96.524 41.3466 96.0526 42.2468 95.3488 42.4121C93.6989 42.9015 92.1309 41.7558 90.9524 40.5282C90.9524 40.3645 91.7397 40.5282 91.4238 40.119C91.1897 39.6263 90.7167 39.3824 90.7167 38.6442C91.3469 38.9716 92.0523 39.7916 92.9165 39.3824C93.072 39.0551 93.3077 38.8914 93.3077 38.564C93.072 38.893 92.3649 39.1385 91.8952 38.9732C91.5024 38.7277 91.3469 38.3185 91.2667 37.7457C91.6579 38.073 92.1309 38.3185 92.6023 38.073C94.0917 36.6817 92.4435 34.9615 92.9918 32.9974C93.3847 31.85 93.9363 30.624 95.1147 30.5422C95.5828 30.3785 96.6042 31.0349 96.6042 29.9693C96.9185 28.6583 98.0969 28.087 99.2722 27.6778C99.2722 27.5976 99.5079 27.4323 99.5079 27.2686C98.5667 27.1868 97.6239 28.4962 96.7613 27.5976C94.8758 28.8252 93.5434 26.5337 91.6579 26.4502C90.9508 25.8774 90.1667 25.1392 89.7756 24.3224C90.1667 24.3224 90.8738 24.4043 90.9508 23.8314C90.8738 23.3404 90.481 23.7496 90.1668 23.6661C89.0685 23.6661 87.9702 22.7675 87.4219 21.6201C87.9702 21.6201 88.5987 21.7854 88.9097 21.3746C88.1257 20.8017 86.8719 21.1291 86.1648 20.147C85.3792 19.3286 84.8309 18.4284 84.438 17.3628V17.1992C84.988 17.4447 85.4594 18.0176 86.1648 17.8539C85.2237 17.1992 84.3578 16.2989 84.0452 15.1532C83.6524 14.3332 83.415 13.6785 83.415 12.8601C85.6165 15.3169 88.5185 16.3808 91.5809 16.952C94.0132 17.1992 97.1525 15.1532 99.2705 17.8539C99.7419 18.5102 99.9776 19.2451 100.528 19.5741C100.92 20.147 101.47 20.6364 101.94 20.9654L102.019 19.7378C102.49 19.0831 102.961 18.6739 103.117 17.8555C102.724 18.0192 102.254 18.6739 101.783 18.8392C101.626 18.4284 101.626 18.0192 101.783 17.5282C102.019 17.119 102.254 16.79 102.724 16.5461C102.333 16.3022 102.019 17.0371 101.783 16.6279C101.783 15.5657 102.724 14.9077 102.881 13.9272L102.961 14.0091C103.353 13.1891 103.981 12.2888 105.081 12.207C105.315 11.6325 104.844 11.3068 104.922 10.8976C105.158 10.9794 105.629 11.1431 105.708 11.6341C105.942 10.8157 106.571 10.8157 107.042 10.6537C107.356 10.6537 107.197 11.0629 107.433 11.0629L107.43 11.0596ZM93.2243 25.5484C92.9886 25.8757 92.5204 25.8757 92.0474 25.9592C92.5188 25.8774 92.8331 25.221 93.2243 25.5484Z" fill="#0062A2"/>
<path d="M88.8852 38.2842C88.8852 37.14 88.9687 36.2415 90.4058 35.7504C90.9983 35.5867 91.6726 35.9141 92.18 36.158C91.5875 34.6865 91.5875 33.0514 92.18 31.5815L80.8699 31.5734C80.8077 33.8976 80.5802 36.1334 80.1841 38.2776L88.8852 38.2842Z" fill="#5BA432"/>
<path d="M88.8852 39.8751H79.8551C79.3313 42.165 78.6095 44.3452 77.6831 46.4141H98.6846L98.0086 45.1063C94.208 44.5334 92.856 44.3714 91.0818 42.9817C90.0686 42.2452 89.1373 41.1829 88.8852 39.8751Z" fill="#0062A2"/>
<path d="M80.0859 21.7298H85.4218C83.9864 19.7673 82.9716 17.4791 82.2105 15.109H78.1104C78.968 17.2057 79.6244 19.4137 80.0843 21.7298H80.0859Z" fill="#0062A2"/>
<path d="M80.8862 30.0119H92.6023L92.856 29.0315C90.4057 27.4782 88.2943 25.5975 86.52 23.3093H80.3657C80.7013 25.4551 80.8748 27.6893 80.8862 30.0103V30.0119Z" fill="#0062A2"/>
<path d="M55.9681 1C46.3389 1 38.8065 7.19357 35.1564 15.9618C33.9583 18.8753 33.1809 21.972 32.7979 25.2718C33.8028 25.9772 34.762 26.7924 35.6769 27.7155C38.6281 30.6912 40.1028 34.5523 40.1028 39.4594C40.1028 43.2158 39.2893 46.4746 37.6624 49.2719C39.1993 51.6043 41.0783 53.6634 43.3092 55.3771C46.9593 58.1923 51.1527 59.559 55.9665 59.559C63.111 59.559 68.7792 56.6636 72.9726 50.9529C77.2429 45.2421 79.3397 38.3235 79.3397 30.2803C79.3397 22.2372 77.2429 15.3185 72.9726 9.60782C68.7808 3.89546 63.1126 1 55.9681 1ZM64.8198 43.3909C62.6461 46.9296 59.695 48.7006 55.9681 48.7006C52.2411 48.7006 49.29 46.9313 47.0378 43.3909C44.7856 39.772 43.6988 35.428 43.6988 30.2803C43.6988 25.1327 44.7856 20.7887 47.0378 17.2499C49.29 13.6294 52.2411 11.86 55.9681 11.86C59.695 11.86 62.6461 13.6294 64.8198 17.2499C67.072 20.7887 68.1588 25.1327 68.1588 30.2803C68.1588 35.428 67.072 39.772 64.8198 43.3909Z" fill="url(#paint0_linear_7927_63415)"/>
<path d="M8.85645 39.8015V46.3404H26.298C28.1492 44.7659 29.2753 42.5448 29.326 39.8015H8.85645Z" fill="#0062A2"/>
<path d="M8.85645 38.15L29.2262 38.1647C28.7777 35.1269 26.8905 32.7355 23.9492 31.4588L8.85808 31.4474V38.15H8.85645Z" fill="#5BA432"/>
<path d="M35.7425 27.8596C36.3841 28.5094 36.9553 29.2017 37.4578 29.9383H68.2963C68.2783 27.5257 68.0197 25.2915 67.5107 23.2373H28.814C31.3559 24.2161 33.6654 25.7563 35.7425 27.8612V27.8596Z" fill="#0062A2"/>
<path d="M40.1061 38.1729L67.2439 38.1925C67.8462 36.1367 68.1867 33.9058 68.2734 31.4899L38.3662 31.4686C39.3696 33.4229 39.9506 35.6506 40.1061 38.1729Z" fill="#5BA432"/>
<path d="M39.1123 46.3404H62.474C63.3972 45.5433 64.2303 44.5384 64.9718 43.3255C65.6576 42.219 66.2337 41.0455 66.7051 39.8015H40.1484C40.1304 42.1798 39.7867 44.3567 39.1139 46.3404H39.1123Z" fill="#0062A2"/>
<path d="M26.2214 21.6562H67.059C66.5336 20.0456 65.8412 18.5545 64.9721 17.1829C64.4893 16.3743 63.9671 15.659 63.4057 15.0354H33.1548L26.2197 21.6562H26.2214Z" fill="#0062A2"/>
<path d="M0.000171935 54.742V43.7216C4.7943 47.1801 10.0533 48.8692 15.8524 48.8692C22.2702 48.8692 27.1412 45.3305 27.1412 39.4578C27.1412 34.0678 22.9658 30.2885 16.3925 30.2885C13.8408 30.2885 11.289 30.7714 8.7373 31.8173V24.1751L21.6515 11.788H1.70079V1.81348H35.8784V10.5015L23.6614 22.1652C27.5275 22.8886 30.9304 24.7398 33.8684 27.7155C36.8064 30.6912 38.2762 34.5523 38.2762 39.4594C38.2762 45.4926 36.1877 50.2376 32.0123 53.8581C27.8369 57.4771 22.6565 59.248 16.4694 59.248C10.2824 59.248 4.56187 57.7193 -0.00146484 54.7436L0.000171935 54.742Z" fill="url(#paint1_linear_7927_63415)"/>
<path d="M83.1289 56.7356V52.5831H83.9768L85.1814 54.3034L86.3861 52.5831H87.229V56.7356H86.3861V53.8942L85.4319 55.2282H84.9572L83.9849 53.8942V56.7356H83.1305H83.1289Z" fill="white"/>
<path d="M89.334 56.7356V52.5831H90.1884V53.9531H90.9593C91.452 53.9531 91.8432 54.0841 92.1345 54.3443C92.4259 54.5996 92.5683 54.9368 92.5683 55.346C92.5683 55.7552 92.4259 56.094 92.1345 56.3477C91.8432 56.6031 91.452 56.734 90.9593 56.734H89.334V56.7356ZM90.1884 55.9827H90.9118C91.4094 55.9827 91.7073 55.7454 91.7073 55.3362C91.7073 54.927 91.4111 54.6782 90.9118 54.6782H90.1884V55.9827ZM93.0658 56.7356V52.5831H93.9202V56.7356H93.0658Z" fill="white"/>
<path d="M101.945 57.5851V56.7372H98.7305V52.5847H99.5849V55.9712H101.323V52.5847H102.178V55.9712H102.754V57.5851H101.947H101.945Z" fill="white"/>
<path d="M104.562 56.7356V52.5831H107.612V53.3491H105.417V54.1495H107.185V54.9024H105.417V55.9696H107.677V56.734H104.562V56.7356Z" fill="white"/>
<path d="M109.545 56.7356V52.5831H110.399V54.1381H112.273V52.5831H113.121V56.7356H112.273V54.9139H110.399V56.7356H109.545Z" fill="white"/>
<path d="M115.228 56.7356V52.5831H116.082V55.2887L118.094 52.5831H118.828V56.7356H117.981V54.0137L115.946 56.7356H115.228Z" fill="white"/>
<path d="M120.935 56.7356V52.5831H121.783L122.988 54.3034L124.192 52.5831H125.035V56.7356H124.192V53.8942L123.238 55.2282H122.763L121.791 53.8942V56.7356H120.937H120.935Z" fill="white"/>
<path d="M126.718 57.6375L127.228 55.8403H128.124L127.405 57.6375H126.718Z" fill="white"/>
<path d="M135.029 56.7356V55.1168C134.733 55.2183 134.419 55.2658 134.092 55.2658C133.113 55.2658 132.555 54.8091 132.555 53.9138V52.5847H133.409V53.7714C133.409 54.287 133.676 54.4768 134.205 54.4768C134.512 54.4768 134.786 54.4179 135.029 54.2984V52.5847H135.877V56.7372H135.029V56.7356Z" fill="white"/>
<path d="M137.704 52.5831H141.186V53.3491H139.87V56.7356H139.015V53.3491H137.704V52.5831Z" fill="white"/>
<path d="M143.168 53.1297C143.577 52.7091 144.092 52.5012 144.709 52.5012C145.327 52.5012 145.837 52.7091 146.246 53.1297C146.656 53.5455 146.863 54.0545 146.863 54.6601C146.863 55.2657 146.656 55.7699 146.246 56.1905C145.837 56.6112 145.327 56.819 144.709 56.819C144.092 56.819 143.577 56.6112 143.168 56.1905C142.758 55.7699 142.557 55.2592 142.557 54.6601C142.557 54.0611 142.758 53.5455 143.168 53.1297ZM144.709 56.0187C145.078 56.0187 145.379 55.8877 145.623 55.6324C145.867 55.377 145.991 55.0513 145.991 54.6601C145.991 54.2689 145.867 53.9416 145.623 53.6879C145.379 53.4325 145.078 53.3016 144.709 53.3016C144.341 53.3016 144.033 53.4325 143.79 53.6879C143.546 53.9432 143.428 54.2689 143.428 54.6601C143.428 55.0513 143.546 55.377 143.79 55.6324C144.033 55.8877 144.341 56.0187 144.709 56.0187Z" fill="white"/>
<path d="M151.527 56.7356V52.5831H153.478C154.237 52.5831 154.735 52.9563 154.735 53.6208C154.735 54.0415 154.497 54.3263 154.212 54.4458C154.443 54.4933 154.64 54.6176 154.805 54.8141C154.97 55.0105 155.054 55.2527 155.054 55.5555C155.054 55.9058 154.923 56.1906 154.663 56.4099C154.402 56.6292 154.052 56.7356 153.613 56.7356H151.525H151.527ZM152.381 54.2085H153.342C153.697 54.2085 153.911 54.0431 153.911 53.7583C153.911 53.4735 153.699 53.2951 153.342 53.2951H152.381V54.2085ZM152.381 55.9991H153.455C153.875 55.9991 154.131 55.8092 154.131 55.459C154.131 55.1087 153.875 54.9139 153.455 54.9139H152.381V55.9991Z" fill="white"/>
<path d="M156.961 56.7356V52.5831H157.815V53.9531H158.586C159.079 53.9531 159.47 54.0841 159.761 54.3443C160.053 54.5996 160.195 54.9368 160.195 55.346C160.195 55.7552 160.053 56.094 159.761 56.3477C159.47 56.6031 159.079 56.734 158.586 56.734H156.961V56.7356ZM157.815 55.9827H158.539C159.036 55.9827 159.334 55.7454 159.334 55.3362C159.334 54.927 159.038 54.6782 158.539 54.6782H157.815V55.9827ZM160.693 56.7356V52.5831H161.547V56.7356H160.693Z" fill="white"/>
<path d="M166.855 56.2135C166.428 55.8043 166.215 55.2887 166.215 54.6602C166.215 54.0317 166.428 53.5095 166.85 53.1052C167.277 52.7026 167.817 52.4996 168.464 52.4996C168.873 52.4996 169.235 52.588 169.56 52.7599V53.6192C169.24 53.4064 168.878 53.2984 168.469 53.2984C168.059 53.2984 167.745 53.4293 167.478 53.6847C167.218 53.94 167.087 54.2592 167.087 54.6569C167.087 55.0546 167.223 55.3804 167.49 55.6357C167.757 55.891 168.096 56.0154 168.505 56.0154C168.955 56.0154 169.335 55.8976 169.644 55.6537V56.513C169.305 56.7143 168.914 56.8158 168.464 56.8158C167.817 56.8158 167.284 56.6145 166.856 56.2102L166.855 56.2135Z" fill="white"/>
<path d="M174.265 56.7356V52.5831H175.119V54.1381H176.993V52.5831H177.841V56.7356H176.993V54.9139H175.119V56.7356H174.265Z" fill="white"/>
<path d="M179.586 56.7356L181.365 52.5602H182.184L183.963 56.7356H183.056L182.647 55.7748H180.89L180.481 56.7356H179.586ZM181.157 55.0694H182.373L181.768 53.6274L181.157 55.0694Z" fill="white"/>
<path d="M185.701 56.7356V52.5831H186.549L187.754 54.3034L188.958 52.5831H189.801V56.7356H188.958V53.8942L188.004 55.2282H187.529L186.557 53.8942V56.7356H185.703H185.701Z" fill="white"/>
<path d="M191.906 56.7356V52.5831H192.76V55.2887L194.772 52.5831H195.507V56.7356H194.659V54.0137L192.624 56.7356H191.907H191.906Z" fill="white"/>
</g>
<defs>
<linearGradient id="paint0_linear_7927_63415" x1="24.6483" y1="30.2787" x2="80.4609" y2="30.2787" gradientUnits="userSpaceOnUse">
<stop stop-color="#0062A2"/>
<stop offset="0.03" stop-color="#03649D"/>
<stop offset="0.49" stop-color="#328663"/>
<stop offset="0.82" stop-color="#4F9B3F"/>
<stop offset="1" stop-color="#5BA432"/>
</linearGradient>
<linearGradient id="paint1_linear_7927_63415" x1="0.000171935" y1="30.5308" x2="38.2762" y2="30.5308" gradientUnits="userSpaceOnUse">
<stop stop-color="#0062A2"/>
<stop offset="1" stop-color="#5BA432"/>
</linearGradient>
<clipPath id="clip0_7927_63415">
<rect width="205" height="60" fill="white"/>
</clipPath>
</defs>
</svg>
